<svg width="13" height="13" viewBox="0 0 13 13" fill="none" xmlns="http://www.w3.org/2000/svg">
<path d="M10.4808 5.97808H8.15491V8.30395H6.99197V5.97808H4.6661V4.81515H6.99197V2.48928H8.15491V4.81515H10.4808V5.97808ZM11.0622 0.744873H4.08463C3.7762 0.744873 3.4804 0.867396 3.26231 1.08549C3.04422 1.30358 2.9217 1.59938 2.9217 1.90781V8.88542C2.9217 9.19385 3.04422 9.48965 3.26231 9.70774C3.4804 9.92583 3.7762 10.0484 4.08463 10.0484H11.0622C11.3707 10.0484 11.6665 9.92583 11.8846 9.70774C12.1027 9.48965 12.2252 9.19385 12.2252 8.88542V1.90781C12.2252 1.59938 12.1027 1.30358 11.8846 1.08549C11.6665 0.867396 11.3707 0.744873 11.0622 0.744873ZM1.75876 3.07074H0.595825V11.2113C0.595825 11.5197 0.718348 11.8155 0.936441 12.0336C1.15453 12.2517 1.45033 12.3742 1.75876 12.3742H9.89931V11.2113H1.75876V3.07074Z" fill="white"/>
</svg>
