<svg width="32" height="32" viewBox="0 0 32 32" fill="none" xmlns="http://www.w3.org/2000/svg">
<circle cx="16" cy="16" r="16" fill="#F8F8F8"/>
<path d="M14.5 21.75H17.5C17.5 22.1478 17.342 22.5294 17.0607 22.8107C16.7794 23.092 16.3978 23.25 16 23.25C15.6022 23.25 15.2206 23.092 14.9393 22.8107C14.658 22.5294 14.5 22.1478 14.5 21.75ZM22.75 20.25V21H9.25V20.25L10.75 18.75V14.25C10.75 11.925 12.2725 9.8775 14.5 9.2175C14.5 9.1425 14.5 9.075 14.5 9C14.5 8.60218 14.658 8.22064 14.9393 7.93934C15.2206 7.65804 15.6022 7.5 16 7.5C16.3978 7.5 16.7794 7.65804 17.0607 7.93934C17.342 8.22064 17.5 8.60218 17.5 9C17.5 9.075 17.5 9.1425 17.5 9.2175C19.7275 9.8775 21.25 11.925 21.25 14.25V18.75L22.75 20.25ZM19.75 14.25C19.75 13.2554 19.3549 12.3016 18.6517 11.5983C17.9484 10.8951 16.9946 10.5 16 10.5C15.0054 10.5 14.0516 10.8951 13.3483 11.5983C12.6451 12.3016 12.25 13.2554 12.25 14.25V19.5H19.75V14.25ZM21.8125 8.3925L20.7475 9.4575C22.03 10.725 22.75 12.45 22.75 14.25H24.25C24.25 12.0525 23.38 9.9375 21.8125 8.3925ZM7.75 14.25H9.25C9.25 12.45 9.97 10.725 11.2525 9.4575L10.1875 8.3925C8.62 9.9375 7.75 12.0525 7.75 14.25Z" fill="#B1BAC9"/>
</svg>
