<svg width="38" height="38" viewBox="0 0 38 38" fill="none" xmlns="http://www.w3.org/2000/svg">
<path d="M36 7H33V2C33 1.4 32.6 1 32 1H5C2.8 1 1 2.8 1 5V33C1 35.2 2.8 37 5 37H36C36.6 37 37 36.6 37 36V8C37 7.4 36.6 7 36 7ZM5 3H31V7H5C3.9 7 3 6.1 3 5C3 3.9 3.9 3 5 3ZM3 33V8.4C3.6 8.8 4.3 9 5 9H7V35H5C3.9 35 3 34.1 3 33ZM35 35H9V9H35V35Z" fill="#646464" fill-opacity="0.2"/>
<path d="M36 6.75H33.25V2C33.25 1.64319 33.13 1.32642 32.9018 1.09822C32.6736 0.870028 32.3568 0.75 32 0.75H5C2.66193 0.75 0.75 2.66193 0.75 5V33C0.75 35.3381 2.66193 37.25 5 37.25H36C36.3568 37.25 36.6736 37.13 36.9018 36.9018C37.13 36.6736 37.25 36.3568 37.25 36V8C37.25 7.64319 37.13 7.32642 36.9018 7.09822C36.6736 6.87003 36.3568 6.75 36 6.75ZM5 3.25H30.75V6.75H5C4.03807 6.75 3.25 5.96193 3.25 5C3.25 4.03807 4.03807 3.25 5 3.25ZM3.25 33V8.83487C3.79702 9.1119 4.39895 9.25 5 9.25H6.75V34.75H5C4.03807 34.75 3.25 33.9619 3.25 33ZM34.75 34.75H9.25V9.25H34.75V34.75Z" stroke="#646464" stroke-opacity="0.2" stroke-width="0.5"/>
<path d="M28 15H16C15.4 15 15 15.4 15 16C15 16.6 15.4 17 16 17H28C28.6 17 29 16.6 29 16C29 15.4 28.6 15 28 15Z" fill="#646464" fill-opacity="0.2"/>
<path d="M28 14.75H16C15.6432 14.75 15.3264 14.87 15.0982 15.0982C14.87 15.3264 14.75 15.6432 14.75 16C14.75 16.3568 14.87 16.6736 15.0982 16.9018C15.3264 17.13 15.6432 17.25 16 17.25H28C28.3568 17.25 28.6736 17.13 28.9018 16.9018C29.13 16.6736 29.25 16.3568 29.25 16C29.25 15.6432 29.13 15.3264 28.9018 15.0982C28.6736 14.87 28.3568 14.75 28 14.75Z" stroke="#646464" stroke-opacity="0.2" stroke-width="0.5"/>
<path d="M28 21H16C15.4 21 15 21.4 15 22C15 22.6 15.4 23 16 23H28C28.6 23 29 22.6 29 22C29 21.4 28.6 21 28 21Z" fill="#646464" fill-opacity="0.2"/>
<path d="M28 20.75H16C15.6432 20.75 15.3264 20.87 15.0982 21.0982C14.87 21.3264 14.75 21.6432 14.75 22C14.75 22.3568 14.87 22.6736 15.0982 22.9018C15.3264 23.13 15.6432 23.25 16 23.25H28C28.3568 23.25 28.6736 23.13 28.9018 22.9018C29.13 22.6736 29.25 22.3568 29.25 22C29.25 21.6432 29.13 21.3264 28.9018 21.0982C28.6736 20.87 28.3568 20.75 28 20.75Z" stroke="#646464" stroke-opacity="0.2" stroke-width="0.5"/>
</svg>
