<svg width="36" height="40" viewBox="0 0 36 40" fill="none" xmlns="http://www.w3.org/2000/svg">
<path d="M8 20H12V24H8V20ZM36 8V36C36 37.0609 35.5786 38.0783 34.8284 38.8284C34.0783 39.5786 33.0609 40 32 40H4C1.78 40 0 38.2 0 36V8C0 6.93913 0.421427 5.92172 1.17157 5.17157C1.92172 4.42143 2.93913 4 4 4H6V0H10V4H26V0H30V4H32C33.0609 4 34.0783 4.42143 34.8284 5.17157C35.5786 5.92172 36 6.93913 36 8ZM4 12H32V8H4V12ZM32 36V16H4V36H32ZM24 24V20H28V24H24ZM16 24V20H20V24H16ZM8 28H12V32H8V28ZM24 32V28H28V32H24ZM16 32V28H20V32H16Z" fill="#646464" fill-opacity="0.2"/>
</svg>

