<svg width="20" height="16" viewBox="0 0 20 16" fill="none" xmlns="http://www.w3.org/2000/svg">
<path d="M20.05 2.83987C20.0542 1.46316 18.9352 0.339893 17.5585 0.339893H2.44569C1.06901 0.339893 -0.05 1.45891 -0.05 2.83558V13.1646C-0.05 14.5412 1.06901 15.6603 2.44569 15.6603H17.5543C18.931 15.6603 20.05 14.5412 20.05 13.1646V2.83987ZM20.05 2.83987L20 2.83972H20.05V2.83987ZM18.8327 13.1646V13.2146H18.8359C18.8095 13.8963 18.2466 14.4429 17.5585 14.4429H2.44569C1.74084 14.4429 1.16732 13.8694 1.16732 13.1646V2.83972C1.16732 2.13487 1.74084 1.56135 2.44569 1.56135H17.5543C18.2592 1.56135 18.8327 2.13487 18.8327 2.83972V13.1646Z" fill="#B1BAC9" stroke="#B1BAC9" stroke-width="0.1"/>
<path d="M12.687 7.87274L17.538 3.52241L17.5383 3.52218C17.786 3.29695 17.8086 2.91385 17.5833 2.66148L17.583 2.66115C17.3578 2.4134 16.9747 2.39078 16.7223 2.6161L16.7222 2.61619L10.0102 8.6405L8.73609 7.50258V7.49923L8.72145 7.48459C8.69118 7.45432 8.66092 7.42833 8.6268 7.40263L3.27354 2.612L3.2735 2.61196C3.02106 2.38658 2.63772 2.40924 2.4125 2.66148C2.18711 2.91392 2.20978 3.29726 2.46202 3.52248L7.37055 7.90979L2.48184 12.4865L2.48168 12.4867C2.23823 12.7166 2.22485 13.0998 2.45452 13.3474L2.45451 13.3474L2.45519 13.3482C2.57614 13.4736 2.73802 13.5414 2.90086 13.5414C3.04956 13.5414 3.19835 13.4873 3.3155 13.3792L3.31574 13.3789L8.28546 8.72983L9.60871 9.91188L9.60889 9.91204C9.72609 10.0157 9.87046 10.0653 10.0145 10.0653C10.1588 10.0653 10.3075 10.0113 10.4205 9.9075C10.4206 9.90741 10.4207 9.90733 10.4208 9.90725L11.7805 8.68874L16.721 13.3826C16.721 13.3826 16.721 13.3827 16.7211 13.3827C16.8387 13.4958 16.9921 13.5497 17.1405 13.5497C17.3028 13.5497 17.4607 13.4864 17.582 13.3606L17.5824 13.3602C17.8122 13.1169 17.8034 12.7293 17.5597 12.4991L12.687 7.87274Z" fill="#B1BAC9" stroke="#B1BAC9" stroke-width="0.1"/>
</svg>
