<svg width="38" height="28" viewBox="0 0 38 28" fill="none" xmlns="http://www.w3.org/2000/svg">
<path d="M7.675 10.5L4 24.5V7H33.75C33.75 6.07174 33.3812 5.1815 32.7249 4.52513C32.0685 3.86875 31.1783 3.5 30.25 3.5H18L14.5 0H4C3.07174 0 2.1815 0.368749 1.52513 1.02513C0.868749 1.6815 0.5 2.57174 0.5 3.5V24.5C0.5 25.4283 0.868749 26.3185 1.52513 26.9749C2.1815 27.6313 3.07174 28 4 28H30.25C31.825 28 33.225 26.95 33.575 25.375L37.6 10.5H7.675ZM30.25 24.5H7.5L10.3 14H33.05L30.25 24.5Z" fill="#646464" fill-opacity="0.2"/>
</svg>
