<svg width="81" height="79" viewBox="0 0 81 79" fill="none" xmlns="http://www.w3.org/2000/svg">
<g filter="url(#filter0_d)">
<path d="M36.3785 37.8627L36.0003 48.0929C36.0003 48.0929 36.0003 49.2612 36.9774 49.0401L38.5533 48.0929C38.5533 48.0929 38.774 48.0929 38.774 47.493L39.3098 35.0841C39.3098 35.0841 39.4359 31.4215 36.1894 35.0841C34.0461 37.3891 31.9343 39.7256 29.7909 42.0621C28.7193 43.2304 27.6791 44.3671 26.6075 45.5353C25.6934 46.5457 25 47.1141 25 48.5034C26.1032 50.5241 30.8311 44.2092 31.493 43.4514C32.6277 42.1569 33.7309 40.8939 34.8656 39.5993C35.1177 39.3151 36.347 38.2732 36.3785 37.8627Z" fill="#BEC1C6"/>
</g>
<g filter="url(#filter1_d)">
<path d="M33.0475 28.4397C33.0475 28.4397 31.831 30.0362 31.895 30.3555C31.895 30.3555 31.3508 31.2176 33.9118 30.5471C33.9118 30.5471 51.7748 24.8635 54.5599 23.6182C54.5599 23.6182 56.7688 23.0435 55.2642 24.2568C52.287 25.9172 49.2138 27.4179 46.1086 28.8229C42.9073 30.2597 39.61 31.505 36.2487 32.6226C33.7838 33.4208 31.2868 34.2829 28.7258 34.6342C27.9575 34.698 25.9086 35.0812 25.5245 34.0594C25.1724 33.1015 25.9086 32.2713 26.6129 31.7285C28.0535 30.611 29.6861 29.685 31.2548 28.7271C31.5109 28.5674 33.5277 27.3541 33.0475 28.4397Z" fill="#BEC1C6"/>
</g>
<g filter="url(#filter2_d)">
<path d="M40.9076 26.9514C42.3445 26.9514 43.5094 25.7865 43.5094 24.3495C43.5094 22.9125 42.3445 21.7476 40.9076 21.7476C39.4706 21.7476 38.3057 22.9125 38.3057 24.3495C38.3057 25.7865 39.4706 26.9514 40.9076 26.9514Z" fill="#BEC1C6"/>
</g>
<defs>
<filter id="filter0_d" x="0" y="12.4563" width="64.3104" height="65.6117" filterUnits="userSpaceOnUse" color-interpolation-filters="sRGB">
<feFlood flood-opacity="0" result="BackgroundImageFix"/>
<feColorMatrix in="SourceAlpha" type="matrix" values="0 0 0 0 0 0 0 0 0 0 0 0 0 0 0 0 0 0 127 0"/>
<feOffset dy="4"/>
<feGaussianBlur stdDeviation="12.5"/>
<feColorMatrix type="matrix" values="0 0 0 0 0 0 0 0 0 0 0 0 0 0 0 0 0 0 0.25 0"/>
<feBlend mode="normal" in2="BackgroundImageFix" result="effect1_dropShadow"/>
<feBlend mode="normal" in="SourceGraphic" in2="effect1_dropShadow" result="shape"/>
</filter>
<filter id="filter1_d" x="0.433594" y="2.48218" width="80.3554" height="61.2751" filterUnits="userSpaceOnUse" color-interpolation-filters="sRGB">
<feFlood flood-opacity="0" result="BackgroundImageFix"/>
<feColorMatrix in="SourceAlpha" type="matrix" values="0 0 0 0 0 0 0 0 0 0 0 0 0 0 0 0 0 0 127 0"/>
<feOffset dy="4"/>
<feGaussianBlur stdDeviation="12.5"/>
<feColorMatrix type="matrix" values="0 0 0 0 0 0 0 0 0 0 0 0 0 0 0 0 0 0 0.25 0"/>
<feBlend mode="normal" in2="BackgroundImageFix" result="effect1_dropShadow"/>
<feBlend mode="normal" in="SourceGraphic" in2="effect1_dropShadow" result="shape"/>
</filter>
<filter id="filter2_d" x="13.3057" y="0.747559" width="55.2038" height="55.2039" filterUnits="userSpaceOnUse" color-interpolation-filters="sRGB">
<feFlood flood-opacity="0" result="BackgroundImageFix"/>
<feColorMatrix in="SourceAlpha" type="matrix" values="0 0 0 0 0 0 0 0 0 0 0 0 0 0 0 0 0 0 127 0"/>
<feOffset dy="4"/>
<feGaussianBlur stdDeviation="12.5"/>
<feColorMatrix type="matrix" values="0 0 0 0 0 0 0 0 0 0 0 0 0 0 0 0 0 0 0.25 0"/>
<feBlend mode="normal" in2="BackgroundImageFix" result="effect1_dropShadow"/>
<feBlend mode="normal" in="SourceGraphic" in2="effect1_dropShadow" result="shape"/>
</filter>
</defs>
</svg>
