<svg width="188" height="148" viewBox="0 0 188 148" fill="none" xmlns="http://www.w3.org/2000/svg">
<path d="M64.9604 27.5189C115.165 26.8971 135.464 -11.9682 159.481 3.73338C181.949 18.5022 154.368 49.5944 152.509 92.3462C150.649 135.098 112.531 154.842 70.8486 144.27C29.1663 133.543 -16.2347 72.2917 6.38833 44.3087C20.3341 27.0525 44.3517 27.8298 64.9604 27.5189Z" fill="url(#paint0_linear)"/>
<path d="M75.8927 55.5951C77.2255 55.405 78.4631 55.31 79.5103 55.0249C87.9833 52.649 96.4562 50.4633 104.834 47.8023C129.967 39.5343 155.005 31.0763 180.043 22.7133C182.043 22.048 184.042 21.5728 186.136 21.1927C186.612 21.0977 187.088 21.3828 187.564 21.5728C187.279 22.048 187.088 22.7133 186.707 22.9984C176.235 28.8905 165.763 34.8776 155.1 40.4847C144.247 46.0917 132.728 50.1781 121.209 54.1696C103.692 60.0617 86.0792 65.3836 68.1813 69.8502C62.9452 71.1807 57.8043 72.6062 52.3778 72.3211C50.4738 72.2261 48.5698 71.846 46.7609 71.3708C44.4761 70.7055 44.0953 68.8999 45.9041 67.2843C46.7609 66.524 47.8082 65.8588 48.7602 65.1936C58.4707 57.8759 68.1813 50.5583 77.8919 43.3357C78.5583 42.7655 79.6055 42.5754 80.4623 42.4804C81.7952 42.2903 82.3664 43.0506 81.8904 44.286C81.4143 45.6165 80.8431 46.947 80.1767 48.0874C78.9391 50.2732 77.6063 52.459 76.3687 54.6448C76.2735 54.8348 76.1783 55.1199 75.8927 55.5951Z" fill="white"/>
<path d="M95.4089 132.858C95.9801 126.015 96.4561 119.078 97.0274 112.236C97.5986 105.298 98.1698 98.3605 98.741 91.423C98.8362 90.6627 98.9314 89.8074 98.9314 89.0471C98.9314 88.667 98.6458 88.3819 98.5506 88.0018C98.1698 88.1918 97.6938 88.1918 97.5034 88.4769C96.837 89.2372 96.2657 90.0925 95.5993 90.8528C89.0304 98.5506 82.4615 106.153 75.9878 113.851C69.4189 121.644 63.0404 129.532 56.5667 137.23C54.5674 139.605 51.997 141.411 48.9505 142.076C48.2841 142.266 47.4273 142.171 46.7609 141.886C45.5233 141.411 45.2377 140.176 45.9041 139.035C46.1897 138.56 46.6657 138.085 47.0465 137.61C52.0922 131.527 57.1379 125.54 62.0883 119.458C72.3701 106.819 82.5567 94.084 92.7433 81.3494C93.4097 80.4941 94.1713 79.7338 94.9329 78.8785C96.7418 76.8828 98.8362 75.2672 101.502 74.6019C103.691 74.0317 105.881 73.3665 108.071 72.7963C110.165 72.3211 112.355 74.2218 111.784 76.3125C110.451 81.2543 110.451 86.2911 110.07 91.328C109.308 100.926 108.642 110.525 108.071 120.028C107.785 123.83 107.88 127.631 107.785 131.432C107.785 132.098 107.88 132.858 108.071 133.523C108.356 134.664 107.976 135.519 107.119 136.184C104.643 137.895 102.168 139.7 99.5978 141.221C97.6938 142.361 96.2657 141.696 95.8849 139.51C95.5993 137.8 95.6945 135.994 95.5993 134.188C95.5041 133.808 95.5041 133.333 95.4089 132.858C95.4089 132.858 95.5041 132.858 95.4089 132.858Z" fill="white"/>
<path d="M119.304 22.2379C119.304 28.3201 115.782 34.0222 110.641 35.9229C104.072 38.3938 98.1697 34.5924 96.5512 28.8903C95.98 26.8946 96.456 24.9939 97.408 23.1883C100.074 18.4366 104.263 15.3004 109.308 14.065C114.544 12.9246 119.685 16.1558 119.304 22.2379Z" fill="white"/>
<defs>
<linearGradient id="paint0_linear" x1="36.2004" y1="24.6435" x2="205.272" y2="134.436" gradientUnits="userSpaceOnUse">
<stop stop-color="#FFA81E"/>
<stop offset="1" stop-color="#E76911"/>
</linearGradient>
</defs>
</svg>
