<svg width="38" height="34" viewBox="0 0 38 34" fill="none" xmlns="http://www.w3.org/2000/svg">
<path d="M33.6667 4.16667V29.8333H4.33341V4.16667H33.6667ZM33.6667 0.5H4.33341C2.29841 0.5 0.666748 2.13167 0.666748 4.16667V29.8333C0.666748 31.8683 2.29841 33.5 4.33341 33.5H33.6667C35.7017 33.5 37.3334 31.8683 37.3334 29.8333V4.16667C37.3334 2.13167 35.7017 0.5 33.6667 0.5ZM30.0001 22.5H8.00008V26.1667H30.0001V22.5ZM15.3334 7.83333H8.00008V18.8333H15.3334V7.83333ZM19.0001 11.5H30.0001V7.83333H19.0001V11.5ZM30.0001 15.1667H19.0001V18.8333H30.0001V15.1667Z" fill="#646464" fill-opacity="0.2"/>
</svg>
