<svg width="22" height="22" viewBox="0 0 22 22" fill="none" xmlns="http://www.w3.org/2000/svg">
<path d="M12.3072 14.4563L12.3086 14.457C12.3434 14.4751 12.3791 14.4935 12.4155 14.5121C12.4659 14.538 12.5176 14.5645 12.5692 14.5916L13.8507 13.3143C14.2926 12.8724 14.8151 12.6349 15.365 12.6349C15.9193 12.6349 16.4379 12.8767 16.8632 13.3192C16.8635 13.3195 16.8637 13.3197 16.8639 13.3199L19.1795 15.644C19.1796 15.6441 19.1797 15.6441 19.1798 15.6442C19.6222 16.0823 19.8592 16.6092 19.8592 17.1629C19.8592 17.7117 19.6269 18.2421 19.1941 18.6925C19.1941 18.6926 19.194 18.6926 19.1939 18.6927L19.1218 18.6234C18.9403 18.8133 18.7546 18.9949 18.5731 19.1679L12.3072 14.4563ZM12.3072 14.4563C12.1544 14.3799 12.0154 14.3104 11.8978 14.2374C10.6591 13.4506 9.53169 12.4243 8.4486 11.0936C7.94512 10.4572 7.6027 9.92048 7.35209 9.38237C7.64667 9.10986 7.92324 8.8292 8.19065 8.55783C8.22092 8.52711 8.25108 8.49652 8.28112 8.46606C8.34047 8.40671 8.39977 8.34635 8.4587 8.28637L8.45881 8.28626C8.51796 8.22606 8.57674 8.16622 8.63547 8.10749C9.09424 7.64872 9.32959 7.11565 9.32959 6.57627C9.32959 6.03689 9.09424 5.50381 8.63547 5.04504L7.4831 3.89267C7.35204 3.76161 7.21812 3.62768 7.09278 3.49398L7.09279 3.49397L7.09169 3.49283C6.83856 3.23128 6.57145 2.95987 6.29535 2.70494C5.8699 2.28442 5.35626 2.05674 4.81217 2.05674C4.26782 2.05674 3.74573 2.28462 3.30773 2.70511L3.30772 2.70509L3.30627 2.70654L3.29783 2.71498L3.29752 2.71529L1.86265 4.16283C1.86259 4.16289 1.86253 4.16294 1.86247 4.163C1.30568 4.71987 0.987357 5.40021 0.917758 6.18756L0.917705 6.18817C0.81453 7.44348 1.18417 8.60875 1.46391 9.36321C2.15236 11.2203 3.18028 12.9396 4.70996 14.7786L4.71018 14.7788C6.56791 16.9971 8.80367 18.7493 11.3578 19.984L11.3585 19.9843C12.3318 20.4456 13.6419 20.9971 15.1096 21.0913L15.1112 21.0913C15.1995 21.0955 15.2947 21.0999 15.3819 21.0999C16.3838 21.0999 17.2297 20.7387 17.891 20.0208L17.9006 20.0104L17.9019 20.0078C17.9035 20.0061 17.9052 20.0042 17.9069 20.0022C17.9096 19.999 17.9127 19.995 17.9159 19.9903C18.1144 19.7507 18.341 19.5314 18.5846 19.2959C18.6037 19.2774 18.623 19.2588 18.6423 19.2401L12.3072 14.4563ZM18.368 17.7626C18.3479 17.786 18.3266 17.8093 18.3042 17.8327L18.3029 17.8315V17.7359C18.3111 17.7362 18.3202 17.7374 18.3298 17.7404C18.3425 17.7444 18.3561 17.7515 18.368 17.7626ZM18.2204 17.7745C18.2192 17.7761 18.2179 17.778 18.2164 17.7802C18.0874 17.9183 17.9557 18.0463 17.8151 18.183C17.7834 18.2138 17.7512 18.2451 17.7185 18.277C17.4443 18.5387 17.1633 18.8153 16.8986 19.1267C16.4924 19.5603 16.0173 19.7644 15.3861 19.7644C15.3221 19.7644 15.258 19.7644 15.1986 19.7604L15.1983 19.7604C13.9648 19.6815 12.8143 19.1991 11.9427 18.7823C9.56677 17.632 7.48021 15.999 5.74587 13.9288C4.3122 12.2008 3.35631 10.6065 2.72363 8.89695L2.72352 8.89667C2.33414 7.85414 2.19504 7.05058 2.25673 6.29759C2.29696 5.82721 2.47671 5.43986 2.8103 5.10626L4.24858 3.66799C4.4436 3.48528 4.63942 3.39645 4.82061 3.39645C5.04641 3.39645 5.23733 3.53378 5.36619 3.66264L5.4369 3.59192L5.36619 3.66264L5.37885 3.6753L5.37881 3.67534L5.38129 3.67765C5.63685 3.91646 5.88023 4.164 6.13753 4.42973L6.13754 4.42975C6.2033 4.49763 6.27006 4.56545 6.33703 4.63347L6.33849 4.63495C6.40506 4.70257 6.47184 4.77041 6.53858 4.83924L6.53858 4.83924L6.53966 4.84033L7.69203 5.9927C7.90625 6.20692 7.99833 6.39822 7.99833 6.57627C7.99833 6.75431 7.90625 6.94562 7.69203 7.15983C7.65017 7.2017 7.60925 7.2431 7.56872 7.2841C7.48905 7.36471 7.41092 7.44375 7.33027 7.52162L7.33024 7.52159L7.32819 7.52369C6.974 7.88631 6.63817 8.22209 6.27347 8.54906L6.27337 8.54895L6.27004 8.55229C6.26995 8.55236 6.26984 8.55246 6.2697 8.55257L6.26738 8.55449L6.26301 8.55815C6.25857 8.56195 6.24993 8.56952 6.24132 8.58105C6.0498 8.77531 5.96687 8.97268 5.94541 9.15813C5.92399 9.34314 5.9648 9.50799 6.00426 9.63294L6.00425 9.63294L6.00475 9.63445L6.01741 9.67244L6.01718 9.67252L6.01985 9.67897C6.32407 10.416 6.75175 11.1077 7.39715 11.9272L7.39659 11.9277L7.40499 11.9361L7.40556 11.9366C8.57538 13.377 9.81058 14.502 11.1747 15.3647C11.3521 15.4772 11.5332 15.5677 11.701 15.6516L11.7028 15.6525C11.8558 15.729 11.9949 15.7987 12.1127 15.8718L12.1124 15.8721L12.1207 15.8762C12.1241 15.8779 12.1284 15.8806 12.1377 15.8864L12.1389 15.8871C12.1466 15.8919 12.1585 15.8994 12.1713 15.9058C12.3268 15.9835 12.4771 16.0219 12.6339 16.0219C13.0258 16.0219 13.2702 15.7774 13.3451 15.7025L13.3463 15.7013L14.7899 14.2577C14.9289 14.1186 15.1322 13.9704 15.3566 13.9704C15.5766 13.9704 15.767 14.1105 15.8905 14.2459L15.8904 14.246L15.8937 14.2492L15.8979 14.2535L15.9021 14.2577L18.228 16.5835L18.2283 16.5839C18.4342 16.7877 18.5249 16.9822 18.5253 17.1673C18.5258 17.3501 18.4383 17.5458 18.2403 17.7548C18.2336 17.7598 18.2267 17.7663 18.2204 17.7745Z" fill="#B1BAC9" stroke="#B1BAC9" stroke-width="0.2"/>
<path d="M16.8884 10.7447L16.8884 10.7448L16.892 10.7442C17.2605 10.6844 17.5025 10.3363 17.4433 9.97098L17.4431 9.97019C17.2117 8.61147 16.5687 7.37277 15.5875 6.39162C14.6064 5.41047 13.3677 4.76746 12.009 4.536L12.009 4.536L12.0082 4.53587C11.6422 4.47653 11.2997 4.71914 11.2352 5.08138C11.171 5.44217 11.408 5.79598 11.7775 5.85607C12.8624 6.03832 13.8481 6.55172 14.6356 7.33928C15.423 8.12667 15.9324 9.11245 16.1189 10.1979C16.1738 10.5261 16.4574 10.7539 16.7789 10.7539C16.816 10.7539 16.8492 10.7497 16.8783 10.746C16.8817 10.7456 16.8851 10.7451 16.8884 10.7447Z" fill="#B1BAC9" stroke="#B1BAC9" stroke-width="0.2"/>
<path d="M11.3957 1.45548L11.3957 1.45548L11.3955 1.45701C11.3361 1.82339 11.5792 2.16566 11.9454 2.23L11.946 2.2301C13.8923 2.56005 15.6675 3.48299 17.0798 4.89111C18.492 6.30332 19.4108 8.07847 19.7408 10.0249C19.7956 10.3531 20.0792 10.5809 20.4008 10.5809C20.4379 10.5809 20.4711 10.5767 20.5002 10.573C20.5036 10.5725 20.507 10.5721 20.5103 10.5717L20.5103 10.5717L20.5128 10.5714C20.8768 10.5165 21.125 10.1685 21.0608 9.80561C20.6816 7.58161 19.6334 5.55778 18.0232 3.94765C16.4132 2.33761 14.3895 1.28941 12.1656 0.910172C11.8012 0.84548 11.4599 1.09515 11.3957 1.45548Z" fill="#B1BAC9" stroke="#B1BAC9" stroke-width="0.2"/>
</svg>
