<svg width="206" height="45" viewBox="0 0 206 45" fill="none" xmlns="http://www.w3.org/2000/svg">
<path d="M137.796 29.1294C136.559 27.7039 136.559 26.5635 138.177 25.233C138.653 24.8529 139.224 24.4727 139.795 24.1876C140.271 23.9025 140.843 23.7125 141.414 23.4273C138.748 20.4813 138.558 18.2005 140.747 14.7792C143.413 10.6927 147.031 8.3169 152.172 8.98214C153.219 9.07717 153.6 8.41193 153.98 7.74669C154.552 6.89138 155.313 6.22614 156.265 5.846C156.646 5.65593 157.217 5.5609 157.693 5.65594C159.026 5.94104 157.693 6.98641 157.313 7.46158C156.837 8.03179 156.361 8.69703 155.885 9.36227C155.409 10.0275 155.218 10.6928 155.504 11.5481C155.98 13.0686 155.504 14.4941 154.837 15.8246C153.219 19.1508 150.648 21.4316 147.221 22.7621C145.317 23.5224 142.651 23.9976 141.604 25.8032C141.604 25.8982 141.509 25.9933 141.509 26.0883C141.509 26.1833 141.604 26.2784 141.699 26.2784C142.937 27.4188 144.746 27.6089 146.364 27.7039C149.696 27.989 153.219 29.4145 151.029 33.406C149.411 36.257 146.745 37.7775 143.604 38.3477C140.652 38.9179 137.606 38.6328 134.75 37.3974C132.179 36.257 131.703 33.7861 133.798 31.7904C134.845 30.745 136.368 30.0798 137.796 29.1294ZM151.791 14.304C151.791 12.1183 150.553 10.9778 148.268 11.1679C145.412 11.453 142.556 14.5892 142.461 17.4402C142.461 19.4359 143.604 20.6714 145.603 20.5763C148.744 20.4813 151.791 17.4402 151.791 14.304ZM143.508 35.6868C144.651 35.5917 145.793 35.2116 146.745 34.5464C148.078 33.596 147.602 31.6003 146.079 31.2202C143.889 30.745 141.699 30.4599 139.51 30.2698C138.367 30.1748 136.844 31.4102 136.559 32.4556C136.178 34.0712 137.987 34.6414 139.224 35.1166C140.557 35.4967 142.08 35.7818 143.508 35.6868Z" fill="white"/>
<path d="M15.4619 17.44C14.0338 17.535 12.701 17.6301 11.273 17.7251C9.55936 17.8201 8.22653 18.3903 7.27452 19.9109C6.5129 21.1463 5.56089 22.1917 4.51367 23.2371C3.84726 23.9023 2.99044 24.3775 2.13363 24.7576C1.84802 24.8527 1.27681 24.6626 0.991206 24.3775C0.896004 24.2825 0.991205 23.6172 1.18161 23.3321C6.5129 16.7748 11.8442 10.2174 17.1755 3.56499C18.6035 1.75934 20.4123 0.999074 22.5068 0.618937C23.4588 0.428869 24.03 0.999068 23.9348 1.94941C23.554 6.70112 23.078 11.5479 22.6972 16.2996C22.602 18.1052 22.6972 19.9109 22.602 21.7165C22.602 22.0967 22.3164 22.5718 22.0308 22.8569C21.3644 23.4271 20.6028 23.9023 19.8411 24.2825C18.8891 24.8527 18.3179 24.5676 18.3179 23.5222C18.2227 21.9066 18.2227 20.196 18.4131 18.4854C18.5083 17.345 18.2227 17.0599 17.1755 17.1549C16.6043 17.44 15.9379 17.44 15.4619 17.44ZM19.3651 6.03589C19.2699 6.03589 19.1747 5.94085 19.0795 5.94085C16.6043 8.88691 14.0338 11.833 11.3682 14.9691C14.0338 14.779 16.4139 14.684 18.6987 14.4939C18.8891 11.6429 19.1747 8.88691 19.3651 6.03589Z" fill="white"/>
<path d="M109.426 10.8826C111.044 10.9777 112.758 10.7876 114.376 10.6926C115.328 10.5975 116.185 10.4075 117.137 10.4075C117.613 10.4075 118.47 10.3124 118.851 10.5975C119.613 11.0727 118.089 12.1181 117.804 12.3082C117.137 12.7833 116.471 12.9734 115.709 13.1635C113.996 13.4486 112.187 13.4486 110.378 13.5436C108.855 13.5436 107.903 14.3039 107.427 15.6344C106.951 16.9648 106.475 18.2953 106.189 19.6258C105.808 21.0513 106.38 21.7165 107.808 21.6215C110.568 21.4314 113.52 21.1463 116.185 20.4811C116.661 20.3861 117.232 20.0059 117.709 20.101C118.565 20.196 118.375 21.0513 117.899 21.4314C114.567 24.3775 109.426 25.1378 105.142 24.5676C102.571 24.2825 101.239 22.5718 101.81 20.101C102.571 17.345 103.619 14.684 104.761 12.023C105.427 10.4075 106.284 8.88692 107.046 7.27134C107.427 6.41603 107.808 5.65575 107.522 4.61037C107.236 3.565 108.188 2.99479 109.045 2.70969C110.092 2.32955 111.14 2.04445 112.282 2.04445C115.614 1.85438 119.041 1.75934 122.373 1.66431C124.182 1.66431 122.564 3.46996 121.802 3.8501C120.85 4.4203 119.613 4.61037 118.565 4.61037C117.232 4.61037 115.804 4.61038 114.472 4.70541C113.044 4.70541 111.996 5.27561 111.425 6.70112C110.854 8.12664 110.188 9.36209 109.426 10.8826Z" fill="white"/>
<path d="M194.536 12.2131C194.917 11.928 195.203 11.7379 195.584 11.4528C197.488 10.1223 199.392 8.88687 201.772 8.50674C204.533 8.1266 206.151 9.83721 205.485 12.4982C205.009 14.2088 204.247 15.7293 203.676 17.3449C202.724 19.8158 202.248 22.9519 199.772 24.3775C199.392 24.5675 199.011 24.7576 198.63 24.7576C197.012 24.6625 197.964 22.0966 198.249 21.2413C199.201 18.8655 200.344 16.3946 201.296 14.0187C201.677 13.1634 202.248 12.118 201.296 11.2627C200.439 10.4074 199.296 10.6925 198.44 11.2627C197.107 12.118 195.584 12.9733 194.536 14.2088C192.537 16.3946 191.014 18.9605 190.252 21.9066C189.776 23.6172 188.443 24.1874 187.111 24.6626C186.349 24.9477 185.873 24.2824 185.968 23.5221C186.063 22.6668 186.254 21.8115 186.635 21.0513C189.205 15.3492 191.68 9.74217 194.251 4.04011C194.822 2.8997 196.536 1.94937 197.773 2.0444C198.63 2.13944 198.82 2.61461 198.344 3.46992C197.107 5.94081 195.869 8.50673 194.632 10.9776C194.441 11.2627 194.346 11.6429 194.251 12.023C194.441 12.118 194.441 12.118 194.536 12.2131Z" fill="white"/>
<path d="M128.467 11.7381C130.085 10.8828 131.513 10.0275 132.941 9.26723C133.703 8.88709 134.464 8.69704 135.321 8.50697C137.796 8.0318 139.415 9.4573 139.129 11.9282C139.034 13.0686 138.558 14.3041 138.082 15.3494C137.13 17.8203 136.178 20.1962 135.226 22.6671C134.94 23.4273 132.751 24.9479 131.894 24.8529C130.942 24.7578 130.942 23.9976 131.132 23.4273C131.513 22.0969 131.989 20.7664 132.465 19.4359C133.227 17.5352 134.179 15.7296 134.94 13.8289C135.321 13.0686 135.607 12.1183 134.94 11.358C134.179 10.5977 133.227 10.7878 132.275 11.0729C129.799 12.0232 127.895 13.8289 126.563 16.1097C125.42 18.0104 124.563 20.1011 123.706 22.0969C123.326 22.9522 121.326 24.6628 120.374 24.6628C119.613 24.6628 119.327 24.1876 119.518 23.5224C119.803 22.477 120.089 21.3366 120.47 20.3863C121.898 17.2501 123.611 14.114 124.849 10.8828C125.515 9.26724 126.563 8.60199 128.086 8.31689C128.467 8.22185 129.038 8.31689 129.323 8.60199C129.514 8.79206 129.419 9.36226 129.323 9.7424C129.133 10.5027 128.752 10.9779 128.467 11.7381Z" fill="white"/>
<path d="M79.4375 25.1378C75.6294 25.1378 73.9158 22.857 74.7726 19.0556C75.915 13.9238 80.8655 9.36214 86.1016 8.60186C86.292 8.60186 86.3872 8.50684 86.5776 8.50684C87.9104 8.50684 89.2433 8.60186 90.0049 9.83731C90.7665 11.0728 90.1953 12.3082 89.4337 13.3536C87.1488 16.3947 84.1024 17.9152 80.3895 18.1053C79.5327 18.2003 78.5807 17.8202 78.2951 19.0556C78.0095 20.5762 78.4855 21.9067 79.7231 22.2868C80.5799 22.5719 81.5319 22.5719 82.3887 22.4769C84.4832 22.1918 86.1968 20.9563 87.8152 19.7209C88.1008 19.5308 88.6721 19.1507 89.0529 19.3407C89.8145 19.6258 89.2433 20.4811 89.0529 20.9563C88.2912 22.1918 86.768 22.952 85.5304 23.6173C83.6264 24.4726 81.5319 25.1378 79.4375 25.1378ZM79.3423 16.0145C82.1031 16.5847 85.2448 15.3493 86.292 13.1635C86.5776 12.5933 86.6728 11.738 86.292 11.2628C86.0064 10.8827 85.0544 10.5976 84.4832 10.6926C82.5792 10.9777 79.6279 14.0188 79.3423 16.0145Z" fill="white"/>
<path d="M174.449 25.0427C173.782 25.0427 173.021 24.8526 172.354 24.6625C171.878 24.5675 171.498 24.3774 171.117 24.0923C170.546 23.7122 170.26 23.047 170.355 22.3817C170.45 21.6214 171.783 20.291 172.545 20.1959C172.735 20.1959 173.211 20.481 173.211 20.5761C173.306 21.3363 173.878 21.8115 174.544 22.0016C176.448 22.6668 178.543 22.3817 180.161 21.3364C180.732 20.9562 181.303 20.1959 181.303 19.5307C181.303 19.1506 180.447 18.4853 179.78 18.2952C178.447 17.725 177.019 17.4399 175.686 16.8697C173.687 16.0144 173.306 14.4939 174.734 12.7833C177.305 9.74218 180.732 8.03156 184.731 7.93652C185.492 7.93652 186.349 8.22162 187.111 8.60176C188.063 9.17197 188.158 10.2173 187.396 11.0727C187.015 11.5478 186.444 11.8329 185.968 12.118C185.302 12.4982 184.826 12.4982 184.445 11.5478C184.255 10.9776 183.303 10.5025 182.731 10.4074C181.113 10.2174 179.59 10.7876 178.257 11.8329C177.21 12.7833 177.305 13.7336 178.638 14.2088C179.685 14.5889 180.827 14.874 181.875 15.2542C182.446 15.4442 182.922 15.6343 183.493 15.8244C185.492 16.7747 185.968 18.2953 184.54 20.1009C182.065 23.237 178.257 25.3278 174.449 25.0427Z" fill="white"/>
<path d="M50.1155 8.79206C51.7339 8.79206 53.0667 8.79206 54.6852 8.79206C53.7331 10.4076 52.4955 11.1679 50.9723 11.0729C49.0683 10.9779 48.1163 11.8332 47.4498 13.3537C46.4978 15.4445 45.3554 17.5352 44.4986 19.626C43.8322 21.3366 44.689 22.382 46.4978 22.0968C47.545 21.9068 48.4971 21.4316 49.4491 21.0515C49.9251 20.8614 50.4011 20.4813 50.8771 20.1962C50.9723 20.2912 51.0675 20.2912 51.1627 20.3862C50.9723 20.7664 50.8771 21.1465 50.5915 21.4316C48.8779 23.0472 46.9738 24.3777 44.5938 24.6628C41.6425 24.9479 39.8337 22.9522 40.7857 20.1962C41.4521 18.2004 42.4994 16.2998 43.3562 14.3991C43.8322 13.4487 44.213 12.4984 44.7842 11.358C43.3562 11.453 42.1185 11.5481 40.8809 11.5481C41.3569 10.0275 42.785 8.79207 44.213 8.8871C45.7362 9.07717 46.4978 8.41193 46.9738 7.17648C47.2594 6.51125 47.7354 5.84601 48.021 5.18078C48.4971 3.8503 49.6395 3.37512 50.7819 3.18505C51.1627 3.09002 51.8291 3.18505 52.0195 3.47016C52.2099 3.75526 52.1147 4.32547 52.0195 4.7056C51.5435 5.75098 50.9723 6.70131 50.4963 7.65166C50.4011 7.93676 50.3059 8.22186 50.1155 8.79206Z" fill="white"/>
<path d="M36.7873 14.1138C36.7873 13.4485 36.7873 12.9734 36.7873 12.4032C36.7873 11.0727 36.0256 10.4074 34.6928 10.6925C33.836 10.8826 32.9792 11.2628 32.3128 11.833C29.9327 13.6386 28.6951 16.2045 28.3143 19.1506C28.0287 21.5265 29.6471 22.952 31.932 22.2867C33.6456 21.7165 35.1688 20.6711 36.6921 19.8158C37.1681 19.5307 37.6441 19.2456 38.0249 18.9605C38.1201 19.0556 38.2153 19.0556 38.3105 19.1506C38.3105 19.5307 38.3105 19.9109 38.2153 20.196C36.8825 23.3321 31.6464 25.9931 28.3143 25.2328C26.3151 24.7576 24.887 23.2371 24.887 21.1463C24.7918 17.1549 26.7911 14.1138 29.6471 11.6429C31.6464 9.83723 33.9312 8.69683 36.6921 8.50676C38.6913 8.41173 40.1193 9.36206 40.2145 10.9776C40.3097 12.4982 38.8817 14.2088 37.3585 14.3989C37.1681 14.2088 36.9777 14.1138 36.7873 14.1138Z" fill="white"/>
<path d="M66.2046 20.2911C66.871 19.6259 67.4422 19.2458 67.823 18.7706C70.2031 15.9196 72.4879 12.9735 74.7727 10.1225C75.344 9.45725 76.1056 8.98208 76.9624 8.69698C77.3432 8.60194 79.3424 8.12677 79.2472 8.88704C79.2472 9.07711 79.152 9.26718 78.9616 9.36221C77.6288 10.8828 76.2008 12.4033 74.868 13.8288C72.2023 16.7749 69.4415 19.7209 66.7758 22.572C66.2046 23.1422 65.5382 23.7124 64.8718 24.1876C64.3958 24.4727 63.6341 24.7578 63.2533 24.5677C62.8725 24.3776 62.6821 23.5223 62.6821 23.0471C62.6821 21.3365 62.7773 19.6259 62.8725 17.9153C63.0629 15.3494 63.4437 12.8785 63.7293 10.3126C63.8245 9.17215 66.0142 7.9367 66.871 8.60194C67.1566 8.79201 67.2518 9.55229 67.2518 9.93242C66.9662 13.0686 66.5854 16.1096 66.2046 19.2458C66.2046 19.5309 66.2046 19.816 66.2046 20.2911Z" fill="white"/>
<path d="M154.361 23.5222C154.361 23.2371 154.361 23.142 154.456 22.952C155.504 19.6258 157.122 16.4896 158.55 13.3535C160.073 10.0273 161.501 6.79615 163.025 3.46995C163.405 2.61464 165.976 1.6643 166.833 2.04443C167.594 2.32954 167.213 2.89973 167.023 3.37491C165.024 7.65145 162.929 11.833 160.93 16.1095C160.454 17.1549 159.978 18.2953 159.597 19.4357C159.216 20.4811 158.931 21.6215 158.36 22.5718C157.788 23.4271 157.027 24.1874 156.075 24.4725C155.884 24.5675 155.599 24.5676 155.408 24.5676C155.028 24.4725 154.456 23.9973 154.361 23.5222Z" fill="white"/>
<path d="M51.5434 23.9975C51.353 23.1422 52.0195 22.0018 52.3051 21.3366C52.7811 20.0061 53.3523 18.7706 53.9235 17.4402C55.0659 14.8742 56.3987 12.4034 57.6364 9.93247C58.1124 9.07716 60.302 8.03178 61.1588 8.41191C61.4444 8.50695 61.73 9.26722 61.5396 9.64736C61.1588 10.6927 60.5876 11.6431 60.1116 12.5934C58.6836 15.9196 57.1603 19.2458 55.7323 22.572C55.3515 23.5223 54.2091 24.4727 53.1619 24.7578C52.6859 24.8528 52.2099 24.8528 51.829 24.6628C51.7338 24.4727 51.5434 24.1876 51.5434 23.9975Z" fill="white"/>
<path d="M162.358 23.9974C162.358 23.9024 162.358 23.8074 162.358 23.7123C163.691 18.8656 166.262 14.494 168.451 9.93236C168.832 9.07705 171.022 8.12669 171.878 8.31676C172.735 8.50683 172.545 9.17208 172.354 9.64725C171.974 10.5976 171.402 11.5479 170.926 12.4983C169.498 15.8245 167.975 19.1507 166.547 22.4769C166.166 23.3322 165.024 24.1875 164.262 24.5676C163.596 24.8527 162.929 24.7577 162.358 24.1875C162.358 24.1875 162.358 24.0925 162.358 23.9974Z" fill="white"/>
<path d="M2.9906 39.4878L1.46737 42.2438H0.324951L5.37064 33.2156H6.70346L8.03629 42.2438H6.89387L6.51306 39.4878H2.9906ZM6.41786 38.5375C6.13225 36.4467 5.94185 34.9262 5.84665 34.2609C5.46584 35.1163 4.60903 36.6368 3.56181 38.5375H6.41786Z" fill="white"/>
<path d="M14.7004 40.3433C14.2244 41.5787 13.3676 42.434 11.7492 42.434C10.1308 42.434 9.36914 41.3887 9.36914 39.8681C9.36914 37.8724 10.5116 35.5916 12.7964 35.5916C14.7004 35.5916 15.1764 36.922 15.0812 37.7773H14.034C14.034 37.0171 13.6532 36.4469 12.7012 36.4469C11.178 36.4469 10.5116 38.3475 10.5116 39.7731C10.5116 41.0085 11.0828 41.5787 11.9396 41.5787C12.7012 41.5787 13.2724 41.1036 13.6532 40.3433H14.7004Z" fill="white"/>
<path d="M16.2236 35.6866H17.2708L17.6516 33.7859H18.6988L18.318 35.6866H19.7461L19.5557 36.5419H18.1276L17.2708 40.5333C17.1756 41.1035 17.1756 41.3886 17.7468 41.3886C17.9372 41.3886 18.2228 41.3886 18.4132 41.2936L18.2228 42.1489C17.9372 42.2439 17.5564 42.2439 17.2708 42.2439C16.2236 42.2439 15.938 41.7688 16.1284 40.6283L16.9852 36.4468H15.938L16.2236 35.6866Z" fill="white"/>
<path d="M21.0789 35.6865H22.2213L20.7933 42.2439H19.7461L21.0789 35.6865ZM21.7453 32.7405H22.7925L22.5069 34.166H21.4597L21.7453 32.7405Z" fill="white"/>
<path d="M24.5062 35.6865C24.887 38.5375 25.0774 40.4382 25.0774 41.2935C25.363 40.6283 27.267 37.3021 28.0286 35.6865H29.1711L25.4582 42.2439H24.2206L23.3638 35.6865H24.5062Z" fill="white"/>
<path d="M34.1216 40.6284C34.0264 41.1986 33.836 41.9589 33.836 42.244H32.7888C32.7888 41.9589 32.884 41.5788 32.9792 41.1987C32.6936 41.7689 32.1224 42.3391 30.7895 42.3391C29.4567 42.3391 28.9807 41.4838 28.9807 40.7235C28.9807 38.8228 30.7895 38.4427 32.0272 38.3476C32.6936 38.2526 33.2648 38.2526 33.6456 38.2526L33.7408 37.7774C33.836 37.1122 33.836 36.3519 32.5984 36.3519C31.456 36.3519 31.1704 36.9221 30.9799 37.3973H29.8375C30.0279 36.4469 30.7895 35.4966 32.5984 35.4966C34.1216 35.4966 35.0736 36.1618 34.788 37.7774L34.1216 40.6284ZM33.4552 39.1079C33.0744 39.1079 32.6936 39.1079 32.1224 39.2029C31.0752 39.298 30.1231 39.5831 30.1231 40.6284C30.1231 41.1036 30.5039 41.5788 31.1704 41.5788C32.5984 41.5788 33.1696 40.4384 33.4552 39.2029V39.1079Z" fill="white"/>
<path d="M36.216 35.6866H37.2632L37.6441 33.7859H38.6913L38.3105 35.6866H39.7385L39.5481 36.5419H38.1201L37.2632 40.5333C37.168 41.1035 37.168 41.3886 37.7393 41.3886C37.9297 41.3886 38.2153 41.3886 38.4057 41.2936L38.2153 42.1489C37.9297 42.2439 37.5488 42.2439 37.2632 42.2439C36.216 42.2439 35.9304 41.7688 36.1208 40.6283L36.9776 36.4468H35.9304L36.216 35.6866Z" fill="white"/>
<path d="M40.8809 39.2027C40.8809 39.4878 40.7857 39.5829 40.7857 39.868C40.7857 41.0084 41.357 41.5786 42.2138 41.5786C43.1658 41.5786 43.6418 41.0084 43.9274 40.5332H45.0698C44.5938 41.5786 43.8322 42.5289 42.1186 42.5289C40.5001 42.5289 39.7385 41.4835 39.7385 39.963C39.7385 38.1573 40.7857 35.7815 43.1658 35.7815C44.9746 35.7815 45.5458 36.9219 45.5458 38.1573C45.5458 38.5375 45.5458 38.9176 45.3554 39.3928H40.8809V39.2027ZM44.4986 38.3474C44.4986 38.1573 44.4986 38.0623 44.4986 37.8722C44.4986 37.0169 44.1178 36.4467 43.1658 36.4467C42.1186 36.4467 41.4522 37.112 41.0713 38.3474H44.4986Z" fill="white"/>
<path d="M51.0675 35.6865C51.4483 38.6326 51.7339 40.7233 51.7339 41.3886C52.1147 40.7233 52.9715 38.8227 54.59 35.6865H55.7324L52.1147 42.624C50.9723 44.8098 50.3059 44.9999 49.1635 44.9999C48.8779 44.9999 48.5923 44.9999 48.4019 44.9048L48.5923 43.9545C48.6875 43.9545 48.8779 44.0495 49.1635 44.0495C50.0203 44.0495 50.3059 43.6694 50.8771 42.624L49.8299 35.6865H51.0675Z" fill="white"/>
<path d="M62.0158 38.3475C62.0158 40.0582 61.0638 42.434 58.4933 42.434C56.8749 42.434 56.0181 41.3887 56.0181 39.7731C56.0181 37.9674 57.1605 35.5916 59.5405 35.5916C60.9686 35.5916 62.0158 36.5419 62.0158 38.3475ZM57.0653 39.7731C57.0653 40.9135 57.5413 41.4837 58.5885 41.4837C60.2069 41.4837 60.8733 39.583 60.8733 38.2525C60.8733 37.1121 60.3973 36.4469 59.3501 36.4469C57.8269 36.4469 57.0653 38.3475 57.0653 39.7731Z" fill="white"/>
<path d="M68.2038 40.5332C68.1086 41.1034 67.9182 41.7687 67.823 42.3389H66.7758C66.7758 42.1488 66.871 41.5786 66.9662 41.1985C66.4902 41.9587 65.7286 42.4339 64.7765 42.4339C63.5389 42.4339 62.7773 41.7687 63.1581 40.058L64.1101 35.7815H65.1573L64.3005 39.963C64.1101 40.8183 64.1101 41.5786 65.2525 41.5786C66.2998 41.5786 67.1566 40.8183 67.5374 39.0127L68.2038 35.8765H69.251L68.2038 40.5332Z" fill="white"/>
<path d="M70.7743 37.6823C70.8695 37.017 71.0599 36.3518 71.1551 35.7816H72.2023C72.2023 35.9716 72.1071 36.6369 71.9167 37.2071C72.3927 36.2567 73.2495 35.6865 74.2015 35.6865L73.9159 36.8269C72.6783 36.922 71.7263 37.8723 71.4407 39.2978L70.7743 42.3389H69.8223L70.7743 37.6823Z" fill="white"/>
<path d="M83.912 37.9673H79.7231L79.0567 41.2935H83.912L83.5312 42.2438H77.7239L79.6279 33.2156H85.1496L84.9592 34.1659H80.4847L79.9135 37.0169H84.1024L83.912 37.9673Z" fill="white"/>
<path d="M86.0064 37.3972C86.1016 36.827 86.1969 36.2568 86.2921 35.6866H87.3393C87.3393 35.8766 87.1489 36.6369 87.1489 36.827C87.5297 36.2568 88.1961 35.5916 89.3385 35.5916C90.5761 35.5916 91.3377 36.3518 90.9569 38.1575L90.1001 42.2439H89.0529L89.9097 38.1575C90.1001 37.2071 89.9097 36.4469 88.8625 36.4469C87.6249 36.4469 86.9585 37.5873 86.6729 38.9177L86.0064 42.2439H84.9592L86.0064 37.3972Z" fill="white"/>
<path d="M97.5258 41.6737C97.0498 43.7645 96.4786 44.9999 94.1937 44.9999C92.0041 44.9999 91.7185 43.7645 91.7185 43.0042H92.7657C92.7657 43.5744 93.1465 44.1446 94.2889 44.1446C95.717 44.1446 96.0978 43.1943 96.4786 41.6737L96.5738 41.1035C96.0978 41.8638 95.4314 42.339 94.4794 42.339C93.1465 42.339 92.3849 41.3886 92.3849 39.7731C92.3849 37.7773 93.5273 35.5916 95.717 35.5916C96.8594 35.5916 97.4306 36.1617 97.621 36.6369C97.7162 36.3518 97.8114 35.8766 97.9066 35.6866H98.9538C98.8586 36.1617 98.6682 36.827 98.573 37.3972L97.5258 41.6737ZM93.4321 39.678C93.4321 40.8184 93.9081 41.3886 94.765 41.3886C96.0026 41.3886 96.7642 40.2482 97.0498 38.9178C97.3354 37.6823 97.0498 36.6369 95.6218 36.6369C94.2889 36.5419 93.4321 38.1575 93.4321 39.678Z" fill="white"/>
<path d="M99.3347 42.3389L101.334 32.8354H102.381L100.382 42.3389H99.3347Z" fill="white"/>
<path d="M103.809 35.6865H104.856L103.428 42.2439H102.381L103.809 35.6865ZM104.38 32.7405H105.428L105.142 34.166H104.095L104.38 32.7405Z" fill="white"/>
<path d="M106.38 40.3432C106.475 41.0084 106.856 41.5786 107.903 41.5786C108.76 41.5786 109.236 41.1035 109.236 40.5333C109.236 39.9631 108.76 39.678 107.903 39.2978C106.475 38.8227 106.094 38.3475 106.094 37.5872C106.094 36.5418 106.856 35.6865 108.474 35.6865C110.188 35.6865 110.854 36.6369 110.759 37.5872H109.712C109.712 37.112 109.426 36.5418 108.379 36.5418C107.713 36.5418 107.237 36.922 107.237 37.4922C107.237 37.9674 107.617 38.1574 108.569 38.5375C109.997 39.0127 110.473 39.5829 110.473 40.5333C110.473 41.8638 109.426 42.624 107.808 42.624C106.094 42.624 105.333 41.7687 105.333 40.5333H106.38V40.3432Z" fill="white"/>
<path d="M114.472 32.7405L113.615 36.7319C114.091 36.0667 114.757 35.5915 115.805 35.5915C116.757 35.5915 117.899 36.0667 117.423 38.0624L116.566 42.3389H115.519L116.376 38.2525C116.566 37.112 116.376 36.5419 115.424 36.5419C114.281 36.5419 113.52 37.3972 113.234 38.6326L112.473 42.2439H111.425L113.425 32.7405H114.472V32.7405Z" fill="white"/>
</svg>
