<svg width="20" height="21" viewBox="0 0 20 21" fill="none" xmlns="http://www.w3.org/2000/svg">
<path d="M6.66667 0.916626H17.7778C18.3671 0.916626 18.9324 1.10818 19.3491 1.44916C19.7659 1.79013 20 2.2526 20 2.73481V17.2803L17.7778 16.4894V2.73481H4.44444C4.44444 2.2526 4.67857 1.79013 5.09532 1.44916C5.51207 1.10818 6.0773 0.916626 6.66667 0.916626ZM13.3333 18.1894V6.37117H2.22222V18.1894L7.77778 16.2075L13.3333 18.1894ZM13.3333 4.55299C14.5667 4.55299 15.5556 5.37117 15.5556 6.37117V20.9166L7.77778 18.1894L0 20.9166V6.37117C0 5.88896 0.234126 5.4265 0.650874 5.08552C1.06762 4.74455 1.63285 4.55299 2.22222 4.55299H13.3333Z" fill="white"/>
</svg>
