<svg width="20" height="20" viewBox="0 0 20 20" fill="none" xmlns="http://www.w3.org/2000/svg">
<path d="M20 18.9323C20 19.2155 19.8829 19.4871 19.6746 19.6873C19.4662 19.8875 19.1836 20 18.8889 20H1.11111C0.816426 20 0.533811 19.8875 0.325437 19.6873C0.117063 19.4871 2.67456e-07 19.2155 2.67456e-07 18.9323V7.71132C-0.000117204 7.54863 0.0384635 7.38806 0.112796 7.24188C0.187128 7.0957 0.295245 6.96777 0.428889 6.86788L9.31778 0.224948C9.51283 0.0791549 9.75289 0 10 0C10.2471 0 10.4872 0.0791549 10.6822 0.224948L19.5711 6.86788C19.7048 6.96777 19.8129 7.0957 19.8872 7.24188C19.9615 7.38806 20.0001 7.54863 20 7.71132V18.9323ZM17.7778 17.8647V8.23234L10 2.42004L2.22222 8.23234V17.8647H17.7778Z" fill="white"/>
</svg>
