<svg width="22" height="22" viewBox="0 0 22 22" fill="white" xmlns="http://www.w3.org/2000/svg">
<path d="M16.7811 1.17753L16.7812 1.1776L20.9653 6.8261C21.1195 7.03422 21.1432 7.31163 21.0266 7.54298C20.9101 7.77428 20.6731 7.92037 20.4141 7.92037H19.0079V20.4141C19.0079 20.7929 18.7008 21.1 18.3219 21.1H1.58594C1.20707 21.1 0.9 20.7929 0.9 20.4141V18.845C0.9 17.6016 1.91141 16.59 3.15485 16.59H4.20099C4.51432 16.59 4.81274 16.6548 5.08411 16.7709V15.707C5.08411 14.4636 6.09552 13.452 7.33896 13.452H8.38495C8.69822 13.452 8.99673 13.5167 9.26807 13.6328V12.5689C9.26807 11.3255 10.2795 10.3141 11.5229 10.3141H12.5689C12.8823 10.3141 13.1807 10.3787 13.452 10.4948V7.92037H12.046C11.7869 7.92037 11.5499 7.77425 11.4334 7.54292M16.7811 1.17753L11.5228 7.49796M16.7811 1.17753C16.6517 1.00309 16.4474 0.9 16.2299 0.9C16.0126 0.9 15.8081 1.00304 15.6789 1.1776L16.7811 1.17753ZM11.4334 7.54292L11.5228 7.49796M11.4334 7.54292C11.4335 7.54294 11.4335 7.54296 11.4335 7.54298L11.5228 7.49796M11.4334 7.54292C11.3168 7.31159 11.3406 7.0342 11.4947 6.8261L15.6788 1.17764L15.7592 1.23712L11.5751 6.88562C11.4434 7.06339 11.4231 7.30035 11.5228 7.49796M13.452 7.82037H13.552V7.92037L13.452 7.82037ZM2.27187 18.845C2.27187 18.3582 2.6681 17.9619 3.15485 17.9619H4.20084C4.68774 17.9619 5.08396 18.3582 5.08396 18.845V19.7281H2.27187V18.845ZM6.45583 18.845V15.707C6.45583 15.2201 6.85204 14.8239 7.33896 14.8239H8.38495C8.8717 14.8239 9.26792 15.2201 9.26792 15.707V19.7281H6.45583V18.845ZM10.6399 15.707V12.5689C10.6399 12.0821 11.0362 11.6859 11.5229 11.6859H12.5689C13.0557 11.6859 13.452 12.0822 13.452 12.5689V19.7281H10.6399V15.707ZM18.3219 6.5485C17.9431 6.5485 17.636 6.85557 17.636 7.23444V19.7281H14.8239V7.23444C14.8239 6.85555 14.5167 6.5485 14.138 6.5485H13.4077L16.2299 2.73829L19.0524 6.5485H18.3219Z" fill="none" stroke="white" stroke-width="1"/>
</svg>
