<svg width="22" height="22" viewBox="0 0 22 22" fill="none" xmlns="http://www.w3.org/2000/svg">
<path d="M21.15 21V21.15H21H19.4375H19.2875V21C19.2875 16.4304 15.5696 12.7125 11 12.7125C6.43038 12.7125 2.7125 16.4304 2.7125 21V21.15H2.5625H1H0.85V21C0.85 18.2891 1.906 15.7398 3.82284 13.8228L3.92891 13.9289L3.82284 13.8228C4.85881 12.7869 6.07991 12.0028 7.41154 11.5005C5.98917 10.4164 5.06875 8.70458 5.06875 6.78125C5.06875 3.51063 7.72938 0.85 11 0.85C14.2706 0.85 16.9313 3.51063 16.9313 6.78125C16.9313 8.70459 16.0108 10.4164 14.5884 11.5005C15.9201 12.0028 17.1412 12.7869 18.1771 13.8228L18.0711 13.9289L18.1771 13.8228C20.094 15.7398 21.15 18.2891 21.15 21ZM11 10.85C13.2434 10.85 15.0687 9.02466 15.0687 6.78125C15.0687 4.53784 13.2434 2.7125 11 2.7125C8.75663 2.7125 6.93125 4.53784 6.93125 6.78125C6.93125 9.02466 8.75663 10.85 11 10.85Z" fill="white" stroke="white" stroke-width="0.3"/>
</svg>
