<svg width="10" height="12" viewBox="0 0 10 12" fill="none" xmlns="http://www.w3.org/2000/svg">
<path d="M1.9 1.9H1.5C0.889446 1.9 0.4 2.3951 0.4 3V10C0.4 10.2917 0.515892 10.5715 0.722183 10.7778C0.928472 10.9841 1.20826 11.1 1.5 11.1H8.5C8.79174 11.1 9.07153 10.9841 9.27782 10.7778C9.48411 10.5715 9.6 10.2917 9.6 10V3C9.6 2.70826 9.48411 2.42847 9.27782 2.22218C9.07153 2.01589 8.79174 1.9 8.5 1.9H8.1V1V0.9H8H7H6.9V1V1.9H3.1V1V0.9H3H2H1.9V1V1.9ZM8.4 9.9H1.6V5.1H8.4V9.9ZM8.4 3.9H1.6V3.1H8.4V3.9Z" fill="#B1BAC9" stroke="#B1BAC9" stroke-width="0.2"/>
</svg>
