<svg width="12" height="12" viewBox="0 0 12 12" fill="none" xmlns="http://www.w3.org/2000/svg">
<path d="M6.35 3.5V3.4H6.25H5.5H5.4V3.5V5.65H3.5H3.4V5.75V6.5V6.6H3.5H6.25H6.35V6.5V3.5ZM9.9 6C9.9 8.14477 8.14477 9.9 6 9.9C3.85523 9.9 2.1 8.14477 2.1 6C2.1 3.85523 3.85523 2.1 6 2.1C8.14477 2.1 9.9 3.85523 9.9 6ZM11.1 6C11.1 3.19477 8.80523 0.9 6 0.9C3.19477 0.9 0.9 3.19477 0.9 6C0.9 8.80523 3.19477 11.1 6 11.1C8.80523 11.1 11.1 8.80523 11.1 6Z" fill="#B1BAC9" stroke="#B1BAC9" stroke-width="0.2"/>
</svg>
